HIERARCHY
ROOT root
{
	OFFSET 0.000000 0.000000 0.000000
	CHANNELS 6 Xposition Yposition Zposition Zrotation Yrotation Xrotation
	JOINT lhip
	{
		OFFSET 0.058581 -0.082280 -0.017664
		CHANNELS 3 Zrotation Yrotation Xrotation
		JOINT lknee
		{
			OFFSET 0.043451 -0.386469 0.008037
			CHANNELS 3 Zrotation Yrotation Xrotation
			JOINT lankle
			{
				OFFSET -0.014790 -0.426874 -0.037428
				CHANNELS 3 Zrotation Yrotation Xrotation
				JOINT ltoe
				{
					OFFSET 0.041054 -0.060286 0.122042
					CHANNELS 3 Zrotation Yrotation Xrotation
					End Site
					{
						OFFSET 0.000000 0.000000 0.000000
					}
				}
			}
		}
	}
	JOINT rhip
	{
		OFFSET -0.060310 -0.090513 -0.013543
		CHANNELS 3 Zrotation Yrotation Xrotation
		JOINT rknee
		{
			OFFSET -0.043257 -0.383688 -0.004843
			CHANNELS 3 Zrotation Yrotation Xrotation
			JOINT rankle
			{
				OFFSET 0.019056 -0.420046 -0.034562
				CHANNELS 3 Zrotation Yrotation Xrotation
				JOINT rtoe
				{
					OFFSET -0.034840 -0.062106 0.130323
					CHANNELS 3 Zrotation Yrotation Xrotation
					End Site
					{
						OFFSET 0.000000 0.000000 0.000000
					}
				}
			}
		}
	}
	JOINT lowerback
	{
		OFFSET 0.004439 0.124404 -0.038385
		CHANNELS 3 Zrotation Yrotation Xrotation
		JOINT upperback
		{
			OFFSET 0.004488 0.137956 0.026820
			CHANNELS 3 Zrotation Yrotation Xrotation
			JOINT chest
			{
				OFFSET -0.002265 0.056032 0.002855
				CHANNELS 3 Zrotation Yrotation Xrotation
				JOINT lowerneck
				{
					OFFSET -0.013390 0.211636 -0.033468
					CHANNELS 3 Zrotation Yrotation Xrotation
					JOINT upperneck
					{
						OFFSET 0.010113 0.088937 0.050410
						CHANNELS 3 Zrotation Yrotation Xrotation
						End Site
						{
							OFFSET 0.000000 0.000000 0.000000
						}
					}
				}
				JOINT lclavicle
				{
					OFFSET 0.071702 0.114000 -0.018898
					CHANNELS 3 Zrotation Yrotation Xrotation
					JOINT lshoulder
					{
						OFFSET 0.122921 0.045205 -0.019046
						CHANNELS 3 Zrotation Yrotation Xrotation
						JOINT lelbow
						{
							OFFSET 0.255332 -0.015649 -0.022946
							CHANNELS 3 Zrotation Yrotation Xrotation
							JOINT lwrist
							{
								OFFSET 0.265709 0.012698 -0.007375
								CHANNELS 3 Zrotation Yrotation Xrotation
								End Site
								{
									OFFSET 0.000000 0.000000 0.000000
								}
							}
						}
					}
				}
				JOINT rclavicle
				{
					OFFSET -0.082954 0.112472 -0.023707
					CHANNELS 3 Zrotation Yrotation Xrotation
					JOINT rshoulder
					{
						OFFSET -0.113228 0.046853 -0.008472
						CHANNELS 3 Zrotation Yrotation Xrotation
						JOINT relbow
						{
							OFFSET -0.260127 -0.014369 -0.031269
							CHANNELS 3 Zrotation Yrotation Xrotation
							JOINT rwrist
							{
								OFFSET -0.269108 0.006794 -0.006027
								CHANNELS 3 Zrotation Yrotation Xrotation
								End Site
								{
									OFFSET 0.000000 0.000000 0.000000
								}
							}
						}
					}
				}
			}
		}
	}
}
MOTION
Frames: 17
Frame Time: 0.033333
-0.069450 -0.984758 0.983377 -173.299571 1.564615 93.187857 5.443066 6.000344 0.592328 -1.397813 -5.930685 -1.997376 -1.315505 9.885422 -10.023668 0.000000 -0.000000 0.000000 -2.365754 -10.033922 -0.564271 1.142170 -6.583074 -2.372838 0.925700 -9.882241 -5.624040 0.000000 -0.000000 0.000000 -4.786713 0.400028 -14.683991 3.587554 -7.698405 27.153236 0.505667 -1.042233 -13.675368 -4.096063 -8.476080 1.632370 4.878663 -2.277384 -4.468658 -36.848697 -4.179238 7.078806 -49.270964 -1.406919 14.134972 8.489126 -27.162382 -10.204796 -5.533242 -8.791612 2.883174 32.155875 10.106982 6.311840 42.390164 12.805660 1.616032 0.114683 -0.016064 -30.171352 15.605019 11.629159 -11.327879 
-0.069777 -0.986414 0.983183 -173.487235 1.414822 93.013179 5.197580 5.952480 0.651791 -1.316064 -5.930722 -1.864056 -1.212616 10.017525 -9.928244 0.000000 -0.000000 0.000000 -2.675702 -9.712376 -0.508629 1.206838 -6.578517 -2.201347 1.628073 -10.067633 -5.687546 0.000000 -0.000000 0.000000 -4.719774 0.381867 -13.654985 3.335510 -7.373218 25.531144 0.583735 -0.898883 -12.596483 -3.817418 -8.516274 0.850142 4.735142 -2.209578 -4.168905 -36.309821 -4.677522 7.002449 -50.005696 -1.227359 14.718858 8.834156 -27.162312 -9.739344 -4.306093 -9.373301 1.772752 31.628322 10.568670 6.345005 44.229389 11.765356 3.368034 -0.441336 2.584747 -26.142614 13.013480 12.821104 -9.488362 
-0.070605 -0.987282 0.983315 -173.612769 1.336061 92.862480 4.971366 5.889118 0.744792 -1.230623 -5.839418 -1.807532 -1.095482 10.189076 -9.931429 0.000000 -0.000000 0.000000 -2.908230 -9.459030 -0.518723 1.280440 -6.680858 -1.959056 1.913477 -10.126388 -5.880328 0.000000 -0.000000 0.000000 -4.546284 0.293829 -12.859776 3.258375 -7.215668 24.519672 0.529579 -0.782221 -12.226207 -3.930316 -8.535448 0.934488 4.799017 -2.055805 -4.381239 -36.339436 -4.863259 6.847780 -50.088275 -0.954221 15.183128 8.795942 -27.068556 -9.901639 -3.001662 -9.645067 1.465753 31.334581 10.778611 6.320998 45.612279 10.466667 5.344783 -0.429945 5.542112 -21.896733 9.070213 13.565535 -7.128751 
-0.073266 -0.994322 0.983687 -175.190141 1.283827 92.334517 4.355268 6.062104 0.985901 -0.868498 -5.092492 -1.806034 -0.902884 11.038404 -9.596271 0.000000 -0.000000 0.000000 -3.371476 -7.283175 -1.420936 1.329312 -7.146774 -0.411252 2.246080 -10.170051 -6.096497 0.000000 -0.000000 0.000000 -3.582704 0.337331 -9.233960 3.099279 -5.886883 20.669047 0.151937 -0.159086 -11.371440 -3.957358 -8.301908 0.591447 4.675599 -2.066224 -4.683835 -35.482809 -5.650402 5.999498 -52.074497 -2.463212 18.666901 8.383194 -21.600558 -6.638348 4.057598 -13.382178 -4.549638 30.402662 11.243974 5.710728 48.128379 8.518723 9.314399 -0.454310 9.002814 -15.821033 -0.481963 15.437983 -9.982858 
-0.073464 -0.994384 0.983908 -175.151721 1.245975 92.214000 4.312487 6.064903 1.056055 -0.840247 -5.423595 -1.874358 -0.722502 11.199439 -9.434272 0.000000 -0.000000 0.000000 -3.414607 -7.284712 -1.259106 1.336547 -7.127017 -0.449561 2.161745 -10.200747 -6.123612 0.000000 -0.000000 0.000000 -3.605956 0.327485 -9.034136 3.044606 -5.883681 20.611157 0.154443 -0.190019 -11.376737 -3.866869 -8.284779 0.526892 4.609962 -2.043993 -4.725095 -35.476364 -5.617452 6.074598 -52.020533 -2.337956 18.497316 8.528276 -22.007826 -6.796723 3.652355 -13.192338 -4.324293 30.391772 11.342499 5.734853 48.273636 8.546096 9.337562 -0.590817 9.000522 -15.863816 -0.284656 15.351658 -9.981213 
-0.073453 -0.994004 0.983884 -175.269980 1.266783 92.103795 4.403797 6.327461 1.317553 -0.986633 -5.296621 -1.913223 -0.783748 11.195652 -9.588681 0.000000 -0.000000 0.000000 -3.340631 -7.212002 -1.096222 1.287374 -6.990480 -0.466469 2.059486 -10.206090 -6.211243 0.000000 -0.000000 0.000000 -3.635807 0.336870 -9.008057 3.054236 -5.757871 20.520136 0.142439 -0.196018 -11.204865 -3.615880 -8.207138 0.095612 4.360111 -2.077380 -4.157723 -35.266432 -5.715653 6.196600 -52.265723 -2.521577 18.302008 8.498551 -21.688288 -6.577195 3.741023 -13.481873 -4.410250 30.414457 11.495295 5.886868 48.516401 8.706631 9.320227 -0.824200 8.546211 -15.741855 -0.306272 15.717497 -10.120628 
-0.073638 -0.994235 0.984040 -175.316635 1.194783 92.094291 4.309120 6.330715 1.332092 -0.939640 -5.399254 -1.993242 -0.741800 11.200508 -9.526876 0.000000 -0.000000 0.000000 -3.381835 -7.102162 -1.110287 1.247559 -6.971674 -0.409288 2.126625 -10.278412 -6.315992 0.000000 -0.000000 0.000000 -3.671167 0.376076 -8.909371 3.010121 -5.679727 20.329934 0.100118 -0.206263 -11.051079 -3.524985 -8.166928 -0.212136 4.392867 -2.208699 -3.923665 -35.108275 -5.801868 6.210479 -52.427242 -2.637800 18.043761 8.506696 -21.579198 -6.556596 3.241093 -13.214538 -4.285717 30.482132 11.565376 5.909660 48.544591 8.792633 9.020479 -0.806808 8.511159 -15.861223 -0.156314 15.739098 -9.767175 
-0.073405 -0.993878 0.983916 -175.395655 1.275338 92.151416 4.466557 6.445926 1.347805 -1.051122 -5.174029 -1.927512 -0.840275 11.088307 -9.733483 0.000000 -0.000000 0.000000 -3.224069 -6.998134 -1.142115 1.202487 -6.915480 -0.393366 2.167088 -10.288844 -6.377013 0.000000 -0.000000 0.000000 -3.589360 0.345849 -8.966963 2.990355 -5.590842 20.116392 0.086705 -0.220949 -10.776359 -3.353379 -8.059895 -0.544523 4.300285 -2.324380 -3.754827 -34.869963 -5.840676 6.114496 -52.747575 -2.740452 17.809600 8.551934 -21.294363 -6.451049 2.640043 -13.341453 -4.221379 30.431491 11.614440 5.881026 48.731534 8.897965 8.896449 -0.920597 8.442516 -15.700499 0.102026 15.714745 -9.746336 
-0.073336 -0.993611 0.983956 -175.467005 1.280712 92.120552 4.505492 6.520029 1.377663 -1.140438 -5.169223 -1.828895 -0.844685 11.148486 -9.835599 0.000000 -0.000000 0.000000 -3.179094 -6.909300 -1.112825 1.168471 -6.867583 -0.331870 2.150063 -10.355727 -6.384625 0.000000 -0.000000 0.000000 -3.565639 0.337149 -8.891087 2.954809 -5.534709 19.931763 0.066595 -0.256305 -10.565579 -3.223904 -7.913799 -0.884926 4.259020 -2.291105 -3.559668 -34.770816 -5.941179 6.032620 -52.892749 -2.729923 17.687547 8.590856 -21.158261 -6.415658 2.523293 -13.328415 -4.247727 30.527750 11.717727 5.866073 48.775736 8.956170 8.864542 -0.953958 8.441019 -15.626615 0.175176 15.701236 -9.684797 
-0.073147 -0.992704 0.983945 -175.629981 1.301254 91.947567 4.608829 6.651047 1.707048 -1.205760 -5.228339 -1.920858 -0.856952 11.170304 -9.898381 0.000000 -0.000000 0.000000 -3.150551 -6.953504 -0.870894 1.153176 -6.724354 -0.290409 2.215652 -10.288586 -6.554212 0.000000 -0.000000 0.000000 -3.556765 0.326243 -8.855379 2.912322 -5.465615 19.875584 0.053822 -0.232283 -10.295686 -2.986914 -7.752373 -1.155290 4.168402 -2.292665 -3.402915 -34.609464 -6.045273 5.945670 -53.128513 -2.778893 17.489059 8.658319 -21.035973 -6.390923 2.434901 -13.310916 -4.112491 30.500989 11.851709 5.867651 48.944342 9.051815 8.740376 -0.981842 8.403726 -15.636000 0.196850 15.631910 -9.597023 
-0.073099 -0.992219 0.983927 -175.746979 1.292056 91.873035 4.624457 6.720425 1.807492 -1.240622 -5.173183 -1.850540 -0.844107 11.160789 -9.974749 0.000000 -0.000000 0.000000 -3.143844 -6.889002 -0.779673 1.099855 -6.646719 -0.255517 2.227526 -10.249926 -6.592181 0.000000 -0.000000 0.000000 -3.507283 0.325311 -8.739860 2.868063 -5.366581 19.820761 0.016844 -0.235805 -10.268841 -2.792418 -7.606412 -1.386813 4.038181 -2.476224 -3.290372 -34.547930 -6.014568 5.851746 -53.242231 -2.847492 17.292501 8.735964 -20.998021 -6.566290 2.483039 -13.261994 -3.529051 30.573498 11.929426 5.869695 49.045146 9.021397 8.729613 -1.139455 8.344192 -15.683828 0.446363 15.664476 -9.632031 
-0.072963 -0.991692 0.983866 -175.823066 1.265431 91.796589 4.615899 6.739223 1.901555 -1.255918 -5.103976 -1.775533 -0.748637 11.190302 -10.081737 0.000000 -0.000000 0.000000 -3.149853 -6.880485 -0.720417 1.053849 -6.624542 -0.154663 2.256864 -10.222817 -6.701572 0.000000 -0.000000 0.000000 -3.526838 0.332754 -8.596495 2.852160 -5.296089 19.687563 0.010231 -0.205292 -10.186633 -2.665953 -7.459779 -1.516806 4.034124 -2.496753 -3.312715 -34.430962 -5.951659 5.752333 -53.430467 -2.971845 17.192250 8.769920 -20.892249 -6.599441 2.409984 -13.144415 -3.262639 30.622922 11.921430 5.816698 49.141300 8.961213 8.696853 -1.326829 8.293234 -15.706243 0.729361 15.665937 -9.720301 
-0.072779 -0.990948 0.983811 -175.923307 1.284046 91.725158 4.659398 6.696157 2.064162 -1.247740 -5.006090 -1.782736 -0.770530 11.157555 -10.121217 0.000000 -0.000000 0.000000 -3.132876 -6.807561 -0.539352 1.064711 -6.637422 -0.249329 2.269756 -10.168646 -6.663965 0.000000 -0.000000 0.000000 -3.505512 0.341155 -8.604986 2.857938 -5.237690 19.714561 -0.004236 -0.195840 -10.149080 -2.591697 -7.303355 -1.592862 3.986685 -2.515860 -3.251159 -34.314606 -5.855679 5.609911 -53.679091 -3.119079 17.202736 8.884439 -20.573669 -6.506533 2.097484 -13.358463 -3.168646 30.630160 11.929053 5.790897 49.247893 8.973900 8.714588 -1.436649 8.159618 -15.782572 0.869573 15.689726 -9.685233 
-0.072450 -0.990576 0.983769 -176.040244 1.278321 91.656014 4.720441 6.757333 2.180408 -1.310412 -4.993178 -1.763591 -0.741033 11.180421 -10.114378 0.000000 -0.000000 0.000000 -3.112402 -6.741757 -0.516342 1.041148 -6.589720 -0.137629 2.292855 -10.171395 -6.801025 0.000000 -0.000000 0.000000 -3.536844 0.314166 -8.522905 2.864334 -5.151782 19.670224 0.020063 -0.186150 -10.098221 -2.541584 -7.151387 -1.744361 3.893495 -2.524815 -3.153444 -34.257880 -5.857352 5.506781 -53.798832 -3.151693 17.166078 8.955968 -20.472372 -6.491968 2.028186 -13.583364 -3.198756 30.683797 11.996238 5.808036 49.313711 9.048454 8.720968 -1.562838 7.972917 -15.783285 0.984016 15.788790 -9.683424 
-0.072270 -0.990368 0.983652 -176.179610 1.271810 91.620265 4.703861 6.763114 2.180923 -1.299211 -4.836972 -1.614468 -0.727564 11.172482 -10.216349 0.000000 -0.000000 0.000000 -3.105580 -6.637634 -0.472165 1.006502 -6.581901 -0.142035 2.270850 -10.094601 -6.749679 0.000000 -0.000000 0.000000 -3.506463 0.310581 -8.529121 2.858420 -5.114660 19.916708 -0.024699 -0.177965 -10.294154 -2.501606 -6.954053 -1.814359 3.891683 -2.538418 -3.147072 -34.233514 -5.907540 5.559078 -53.900218 -3.108973 17.109747 9.125807 -20.557631 -6.545062 2.001045 -13.699300 -3.308354 30.772571 12.088450 5.921694 49.273697 9.141899 8.630444 -1.541966 7.876975 -15.926803 0.858517 15.880189 -9.632082 
-0.072104 -0.989643 0.983568 -176.306644 1.271542 91.560535 4.749362 6.843976 2.295396 -1.373860 -4.752243 -1.546310 -0.712621 11.171243 -10.312043 0.000000 -0.000000 0.000000 -3.095623 -6.636594 -0.387132 0.970684 -6.509908 -0.107559 2.272739 -10.000742 -6.804529 0.000000 -0.000000 0.000000 -3.533614 0.292917 -8.553225 2.865934 -5.074342 19.936573 -0.036087 -0.119573 -10.252243 -2.398318 -6.792215 -1.864359 3.967851 -2.497098 -3.223533 -34.174948 -5.925647 5.551856 -54.091869 -3.091481 17.003370 9.324271 -20.489568 -6.689561 1.537761 -13.447446 -3.095364 30.861713 12.152197 5.912537 49.261280 9.063580 8.528510 -1.673548 7.851427 -16.114146 1.056272 15.626898 -9.334099 
-0.071825 -0.989251 0.983592 -176.387671 1.281141 91.529053 4.805661 6.874628 2.373206 -1.401454 -4.691606 -1.519494 -0.728515 11.110781 -10.359188 0.000000 -0.000000 0.000000 -3.042885 -6.577935 -0.378619 0.924554 -6.477359 -0.013738 2.225525 -10.028726 -6.813365 0.000000 -0.000000 0.000000 -3.555316 0.295320 -8.491930 2.879222 -5.004129 19.862457 -0.038273 -0.111473 -10.182163 -2.213649 -6.639155 -2.218531 4.013446 -2.521829 -3.009271 -34.166292 -5.926593 5.504813 -54.113878 -3.103021 16.984306 9.341319 -20.456714 -6.745802 1.279386 -13.543826 -3.047488 30.975824 12.082191 5.793338 49.216458 9.046217 8.485143 -1.750057 7.842457 -16.182060 1.350005 15.514864 -9.144484 
